<?xml version="1.0" standalone="no"?>
<!DOCTYPE svg PUBLIC "-//W3C//DTD SVG 20010904//EN"
 "http://www.w3.org/TR/2001/REC-SVG-20010904/DTD/svg10.dtd">
<svg version="1.0" xmlns="http://www.w3.org/2000/svg"
 width="225.000000pt" height="225.000000pt" viewBox="0 0 225.000000 225.000000"
 preserveAspectRatio="xMidYMid meet">

<g transform="translate(0.000000,225.000000) scale(0.100000,-0.100000)"
fill="#000000" stroke="none">
<path d="M1057 1363 c-14 -4 -17 -13 -15 -46 l3 -42 45 0 45 0 3 41 c3 36 0
42 -20 48 -25 6 -33 6 -61 -1z"/>
<path d="M250 1121 c0 -168 3 -242 11 -247 22 -13 146 -17 183 -4 82 27 126
90 126 180 0 96 -46 159 -124 167 -32 4 -53 1 -70 -11 -14 -9 -28 -16 -31 -16
-3 0 -5 38 -5 85 l0 85 -45 0 -45 0 0 -239z m207 -3 c13 -15 18 -35 17 -75 0
-48 -4 -59 -28 -79 -18 -17 -39 -24 -67 -24 l-39 0 0 76 c0 82 10 111 43 123
28 10 51 4 74 -21z"/>
<path d="M1240 1158 c0 -238 7 -263 76 -287 49 -17 94 -9 94 18 0 34 -12 51
-34 51 -43 0 -46 13 -46 222 l0 198 -45 0 -45 0 0 -202z"/>
<path d="M1493 1240 c-66 -84 -75 -103 -45 -98 15 3 18 -9 22 -103 4 -76 11
-114 23 -132 20 -31 85 -51 134 -42 31 6 34 9 31 38 -3 29 -6 32 -40 35 -51 4
-59 24 -56 124 l3 82 40 0 c38 1 40 3 43 33 3 31 2 32 -40 35 l-43 3 -5 53 -5
52 -62 -80z"/>
<path d="M1759 1203 c-63 -64 -67 -71 -67 -114 0 -44 3 -49 73 -119 63 -62 75
-71 92 -61 14 7 23 7 31 -1 14 -14 66 26 127 98 39 45 45 57 35 69 -15 18
-150 21 -167 4 -18 -18 -35 -1 -23 22 6 11 10 52 8 92 -4 99 -21 100 -109 10z
m99 -31 l-3 -57 -80 -3 -80 -3 75 76 c84 85 93 84 88 -13z m0 -171 c4 -95 -7
-97 -88 -16 -39 38 -70 73 -70 78 0 4 35 7 78 5 l77 -3 3 -64z m182 62 c0 -10
-132 -143 -142 -143 -5 0 -8 34 -8 75 l0 75 75 0 c41 0 75 -3 75 -7z"/>
<path d="M657 1213 c-4 -3 -7 -63 -7 -132 0 -109 3 -131 20 -159 30 -49 79
-66 170 -59 119 8 110 -6 110 183 l0 164 -25 6 c-14 3 -36 3 -50 0 l-25 -6 0
-135 0 -135 -39 0 c-64 0 -71 14 -71 150 0 98 -3 119 -16 124 -21 8 -59 8 -67
-1z"/>
<path d="M1007 1191 c-6 -25 10 -51 33 -51 18 0 20 -9 22 -137 3 -150 5 -153
64 -139 l24 6 0 170 0 170 -69 0 c-59 0 -69 -3 -74 -19z"/>
</g>
</svg>
