<?xml version="1.0" standalone="no"?>
<!DOCTYPE svg PUBLIC "-//W3C//DTD SVG 20010904//EN"
 "http://www.w3.org/TR/2001/REC-SVG-20010904/DTD/svg10.dtd">
<svg version="1.0" xmlns="http://www.w3.org/2000/svg"
 width="225.000000pt" height="225.000000pt" viewBox="0 0 225.000000 225.000000"
 preserveAspectRatio="xMidYMid meet">

<g transform="translate(0.000000,225.000000) scale(0.100000,-0.100000)"
fill="#000000" stroke="none">
<path d="M995 2239 c-164 -18 -364 -93 -506 -190 -81 -55 -198 -166 -260 -248
-65 -86 -153 -264 -183 -371 -143 -507 92 -1054 557 -1296 172 -89 329 -127
522 -127 193 0 350 38 522 127 465 242 700 789 557 1296 -30 107 -118 285
-183 371 -185 244 -471 405 -779 438 -114 12 -132 12 -247 0z m-214 -492 c123
-82 65 -257 -86 -257 -118 0 -192 114 -135 208 44 72 151 96 221 49z m855
-382 c45 -23 68 -44 96 -85 61 -89 68 -136 68 -442 l0 -268 -134 0 -134 0 -4
253 c-4 233 -6 255 -25 293 -25 47 -57 64 -118 64 -32 0 -51 -7 -75 -26 -58
-50 -60 -59 -60 -334 l0 -250 -140 0 -140 0 0 405 0 405 140 0 140 0 0 -48 0
-49 44 43 c58 55 112 74 207 71 62 -2 86 -8 135 -32z m-806 -390 l0 -405 -135
0 -135 0 0 405 0 405 135 0 135 0 0 -405z"/>
</g>
</svg>
