<?xml version="1.0" standalone="no"?>
<!DOCTYPE svg PUBLIC "-//W3C//DTD SVG 20010904//EN"
 "http://www.w3.org/TR/2001/REC-SVG-20010904/DTD/svg10.dtd">
<svg version="1.0" xmlns="http://www.w3.org/2000/svg"
 width="225.000000pt" height="225.000000pt" viewBox="0 0 225.000000 225.000000"
 preserveAspectRatio="xMidYMid meet">

<g transform="translate(0.000000,225.000000) scale(0.100000,-0.100000)"
fill="#000000" stroke="none">
<path d="M975 2144 c-11 -2 -51 -12 -90 -20 -302 -68 -581 -304 -704 -593 -62
-147 -76 -218 -76 -406 0 -145 4 -182 23 -251 101 -372 373 -645 741 -745 110
-30 329 -37 442 -14 403 81 703 361 810 754 30 110 37 326 14 446 -72 387
-364 699 -755 806 -57 16 -113 22 -230 24 -85 2 -164 2 -175 -1z m485 -172
c36 -14 97 -44 135 -68 60 -36 70 -46 70 -70 0 -37 -33 -44 -72 -16 -39 27
-160 87 -208 102 -22 7 -46 17 -52 23 -19 14 -16 44 5 56 19 12 31 9 122 -27z
m354 -253 c48 -54 54 -67 34 -87 -23 -23 -47 -12 -92 42 -49 57 -53 65 -34 84
22 22 46 12 92 -39z m-233 -297 c41 -36 48 -80 48 -297 0 -217 -7 -261 -48
-297 l-31 -28 -425 0 -425 0 -31 28 c-41 36 -48 80 -48 297 0 217 7 261 48
297 l31 28 425 0 425 0 31 -28z"/>
<path d="M1030 1121 c0 -100 2 -181 4 -181 9 0 261 181 264 189 2 6 -189 129
-260 168 -5 2 -8 -77 -8 -176z"/>
</g>
</svg>
